<mxfile host="Electron" agent="Mozilla/5.0 (Macintosh; Intel Mac OS X 10_15_7) AppleWebKit/537.36 (KHTML, like Gecko) draw.io/24.7.8 Chrome/128.0.6613.36 Electron/32.0.1 Safari/537.36" version="24.7.8">
  <diagram name="Page-1" id="8msTcBh9BjmDlCaGPtgJ">
    <mxGraphModel dx="1478" dy="602" grid="1" gridSize="10" guides="1" tooltips="1" connect="1" arrows="1" fold="1" page="1" pageScale="1" pageWidth="850" pageHeight="1100" math="0" shadow="0">
      <root>
        <mxCell id="0" />
        <mxCell id="1" parent="0" />
        <mxCell id="nC6IjccQ70I3MEEqmuv8-1" value="" style="rounded=0;whiteSpace=wrap;html=1;fontFamily=Times New Roman;" vertex="1" parent="1">
          <mxGeometry x="60" y="130" width="120" height="240" as="geometry" />
        </mxCell>
        <mxCell id="nC6IjccQ70I3MEEqmuv8-2" value="Process1" style="text;html=1;align=center;verticalAlign=middle;whiteSpace=wrap;rounded=0;fontFamily=Times New Roman;fontSize=20;" vertex="1" parent="1">
          <mxGeometry x="90" y="380" width="60" height="30" as="geometry" />
        </mxCell>
        <mxCell id="nC6IjccQ70I3MEEqmuv8-3" value="Process2" style="text;html=1;align=center;verticalAlign=middle;whiteSpace=wrap;rounded=0;fontFamily=Times New Roman;fontSize=20;" vertex="1" parent="1">
          <mxGeometry x="280" y="380" width="60" height="30" as="geometry" />
        </mxCell>
        <mxCell id="nC6IjccQ70I3MEEqmuv8-4" value="" style="rounded=0;whiteSpace=wrap;html=1;fontFamily=Times New Roman;" vertex="1" parent="1">
          <mxGeometry x="250" y="130" width="120" height="240" as="geometry" />
        </mxCell>
        <mxCell id="nC6IjccQ70I3MEEqmuv8-5" value="dummy()" style="rounded=0;whiteSpace=wrap;html=1;fontFamily=Times New Roman;" vertex="1" parent="1">
          <mxGeometry x="60" y="130" width="120" height="20" as="geometry" />
        </mxCell>
        <mxCell id="nC6IjccQ70I3MEEqmuv8-6" value="High: task[i] + PGSIZE" style="text;html=1;align=center;verticalAlign=middle;whiteSpace=wrap;rounded=0;fontFamily=Times New Roman;fontSize=20;" vertex="1" parent="1">
          <mxGeometry x="-80" y="120" width="130" height="30" as="geometry" />
        </mxCell>
        <mxCell id="nC6IjccQ70I3MEEqmuv8-7" value="Low: task[i]" style="text;html=1;align=center;verticalAlign=middle;whiteSpace=wrap;rounded=0;fontFamily=Times New Roman;fontSize=20;" vertex="1" parent="1">
          <mxGeometry x="-70" y="350" width="110" height="30" as="geometry" />
        </mxCell>
        <mxCell id="nC6IjccQ70I3MEEqmuv8-8" value="task_struct" style="rounded=0;whiteSpace=wrap;html=1;fontFamily=Times New Roman;" vertex="1" parent="1">
          <mxGeometry x="60" y="320" width="120" height="50" as="geometry" />
        </mxCell>
        <mxCell id="nC6IjccQ70I3MEEqmuv8-9" value="_traps()" style="rounded=0;whiteSpace=wrap;html=1;fontFamily=Times New Roman;" vertex="1" parent="1">
          <mxGeometry x="60" y="150" width="120" height="20" as="geometry" />
        </mxCell>
        <mxCell id="nC6IjccQ70I3MEEqmuv8-10" value="trap_handler()" style="rounded=0;whiteSpace=wrap;html=1;fontFamily=Times New Roman;" vertex="1" parent="1">
          <mxGeometry x="60" y="170" width="120" height="20" as="geometry" />
        </mxCell>
        <mxCell id="nC6IjccQ70I3MEEqmuv8-11" value="do_timer()" style="rounded=0;whiteSpace=wrap;html=1;fontFamily=Times New Roman;" vertex="1" parent="1">
          <mxGeometry x="60" y="190" width="120" height="20" as="geometry" />
        </mxCell>
        <mxCell id="nC6IjccQ70I3MEEqmuv8-12" value="schedule()" style="rounded=0;whiteSpace=wrap;html=1;fontFamily=Times New Roman;" vertex="1" parent="1">
          <mxGeometry x="60" y="210" width="120" height="20" as="geometry" />
        </mxCell>
        <mxCell id="nC6IjccQ70I3MEEqmuv8-13" value="switch_to()" style="rounded=0;whiteSpace=wrap;html=1;fontFamily=Times New Roman;" vertex="1" parent="1">
          <mxGeometry x="60" y="230" width="120" height="20" as="geometry" />
        </mxCell>
        <mxCell id="nC6IjccQ70I3MEEqmuv8-15" value="" style="shape=curlyBracket;whiteSpace=wrap;html=1;rounded=1;labelPosition=left;verticalLabelPosition=middle;align=right;verticalAlign=middle;" vertex="1" parent="1">
          <mxGeometry x="30" y="160" width="20" height="80" as="geometry" />
        </mxCell>
        <mxCell id="nC6IjccQ70I3MEEqmuv8-16" value="interrupt handler" style="text;html=1;align=center;verticalAlign=middle;whiteSpace=wrap;rounded=0;fontFamily=Times New Roman;" vertex="1" parent="1">
          <mxGeometry x="-40" y="185" width="60" height="30" as="geometry" />
        </mxCell>
        <mxCell id="nC6IjccQ70I3MEEqmuv8-26" style="edgeStyle=orthogonalEdgeStyle;rounded=0;orthogonalLoop=1;jettySize=auto;html=1;entryX=1;entryY=0.5;entryDx=0;entryDy=0;dashed=1;dashPattern=8 8;" edge="1" parent="1" source="nC6IjccQ70I3MEEqmuv8-19" target="nC6IjccQ70I3MEEqmuv8-13">
          <mxGeometry relative="1" as="geometry">
            <Array as="points">
              <mxPoint x="200" y="315" />
              <mxPoint x="200" y="240" />
            </Array>
          </mxGeometry>
        </mxCell>
        <mxCell id="nC6IjccQ70I3MEEqmuv8-19" value="thread_struct" style="rounded=0;whiteSpace=wrap;html=1;fontFamily=Times New Roman;" vertex="1" parent="1">
          <mxGeometry x="75" y="300" width="90" height="30" as="geometry" />
        </mxCell>
        <mxCell id="nC6IjccQ70I3MEEqmuv8-21" style="edgeStyle=orthogonalEdgeStyle;rounded=0;orthogonalLoop=1;jettySize=auto;html=1;" edge="1" parent="1" source="nC6IjccQ70I3MEEqmuv8-20" target="nC6IjccQ70I3MEEqmuv8-19">
          <mxGeometry relative="1" as="geometry" />
        </mxCell>
        <mxCell id="nC6IjccQ70I3MEEqmuv8-20" value="__switch_to()&lt;div&gt;saved&lt;/div&gt;" style="text;html=1;align=center;verticalAlign=middle;whiteSpace=wrap;rounded=0;fontFamily=Times New Roman;" vertex="1" parent="1">
          <mxGeometry x="-40" y="300" width="60" height="30" as="geometry" />
        </mxCell>
        <mxCell id="nC6IjccQ70I3MEEqmuv8-23" value="task_struct" style="rounded=0;whiteSpace=wrap;html=1;fontFamily=Times New Roman;" vertex="1" parent="1">
          <mxGeometry x="250" y="320" width="120" height="50" as="geometry" />
        </mxCell>
        <mxCell id="nC6IjccQ70I3MEEqmuv8-24" value="thread_struct" style="rounded=0;whiteSpace=wrap;html=1;fontFamily=Times New Roman;" vertex="1" parent="1">
          <mxGeometry x="265" y="300" width="90" height="30" as="geometry" />
        </mxCell>
        <mxCell id="nC6IjccQ70I3MEEqmuv8-27" value="__dummy()" style="rounded=0;whiteSpace=wrap;html=1;fontFamily=Times New Roman;" vertex="1" parent="1">
          <mxGeometry x="410" y="300" width="90" height="30" as="geometry" />
        </mxCell>
        <mxCell id="nC6IjccQ70I3MEEqmuv8-28" style="edgeStyle=orthogonalEdgeStyle;rounded=0;orthogonalLoop=1;jettySize=auto;html=1;entryX=0;entryY=0.5;entryDx=0;entryDy=0;dashed=1;dashPattern=8 8;exitX=1;exitY=0.5;exitDx=0;exitDy=0;" edge="1" parent="1" source="nC6IjccQ70I3MEEqmuv8-24" target="nC6IjccQ70I3MEEqmuv8-27">
          <mxGeometry relative="1" as="geometry">
            <mxPoint x="200" y="315" as="sourcePoint" />
            <mxPoint x="215" y="240" as="targetPoint" />
            <Array as="points">
              <mxPoint x="410" y="315" />
            </Array>
          </mxGeometry>
        </mxCell>
      </root>
    </mxGraphModel>
  </diagram>
</mxfile>
